Coordinates
version=1
nRows=11
nColumns=42
inDegrees=yes

Units are S.I. units (second, meters, Newtons, ...)
If the header above contains a line with 'inDegrees', this indicates whether rotational values are in degrees (yes) or radians (no).

endheader
time	pelvis_tilt	pelvis_list	pelvis_rotation	pelvis_tx	pelvis_ty	pelvis_tz	hip_flexion_r	hip_adduction_r	hip_rotation_r	knee_angle_r	knee_adduction_r	knee_angle_r_beta	ankle_angle_r	subtalar_angle_r	mtp_angle_r	hip_flexion_l	hip_adduction_l	hip_rotation_l	knee_angle_l	knee_adduction_l	knee_angle_l_beta	ankle_angle_l	subtalar_angle_l	mtp_angle_l	lumbar_extension	lumbar_bending	lumbar_rotation	arm_flex_r	arm_add_r	arm_rot_r	elbow_flex_r	pro_sup_r	wrist_flex_r	wrist_dev_r	arm_flex_l	arm_add_l	arm_rot_l	elbow_flex_l	pro_sup_l	wrist_flex_l	wrist_dev_l
      0.30000000	     17.66589890	      3.91796660	      5.59196010	     -1.55579528	      0.89467386	     -0.01834401	      4.89579673	     -1.02801454	    -14.18064776	     29.85058527	     -3.01922820	      0.52099100	     11.39985088	     -1.90698352	     -9.54271895	    -23.88815437	     -2.59097989	      0.92563713	     45.81824687	      4.30074171	      0.79967927	      1.05446490	     -2.86914623	     -9.54271895	    -35.40296023	     -1.02022415	     -4.60795097	      2.40849776	     -5.85347579	    -36.05764608	     24.62166361	     90.00000001	      0.00000000	      0.00000000	      7.57509420	     -8.53375883	    -33.35637446	     33.91662672	     90.00000001	      0.00000000	      0.00000000
      0.31000000	     17.71934019	      3.70924261	      5.44887410	     -1.54740052	      0.89556561	     -0.01718098	      4.22101343	     -0.58322023	    -14.60136788	     29.69295892	     -3.30559438	      0.51823990	     12.04765094	     -1.34267842	     -9.47678634	    -22.58395509	     -2.76772986	      1.54351218	     48.44410190	      4.62823824	      0.84550908	      0.54282903	     -4.49057094	     -9.47678634	    -35.45361009	     -0.84121101	     -4.55964179	      2.77559206	     -5.93642106	    -35.54599171	     24.99730725	     90.00000001	      0.00000000	      0.00000000	      7.34363070	     -8.42142000	    -33.37741328	     33.76948984	     90.00000001	      0.00000000	      0.00000000
      0.32000000	     17.76443134	      3.71993277	      5.36432770	     -1.53929534	      0.89652135	     -0.01630279	      3.59248396	     -0.48561645	    -15.24789367	     29.67476539	     -3.57026909	      0.51792236	     12.80739531	     -0.23347243	     -9.35596796	    -21.25150072	     -2.62720955	      2.66761561	     50.89592808	      5.14864507	      0.88830152	     -0.15611928	     -7.32726336	     -9.35596796	    -35.55669217	     -0.83619098	     -4.65536462	      3.06381783	     -6.04112800	    -34.32080873	     25.48988459	     90.00000001	      0.00000000	      0.00000000	      7.19067395	     -8.32887616	    -33.49091003	     33.58617890	     90.00000001	      0.00000000	      0.00000000
      0.33000000	     18.10010659	      3.81446279	      5.07743775	     -1.53122737	      0.89800246	     -0.01512193	      2.55725899	     -0.41814436	    -15.25314549	     29.51328484	     -3.61003038	      0.51510399	     13.26116433	     -0.02895778	     -9.33213289	    -20.30216479	     -2.33112240	      2.82373584	     53.01343690	      5.02211065	      0.92525902	      0.23784384	     -7.97308529	     -9.33213289	    -35.99798944	     -1.01038801	     -4.55843469	      3.51309340	     -6.06776752	    -34.05758558	     25.82512054	     90.00000001	      0.00000000	      0.00000000	      7.10453801	     -8.24927012	    -33.43151012	     33.52708544	     90.00000001	      0.00000000	      0.00000000
      0.34000000	     17.78804609	      3.52116690	      5.24823910	     -1.52366388	      0.89816648	     -0.01458797	      2.31380197	      0.01774845	    -15.73209556	     29.36540931	     -3.76963427	      0.51252308	     14.08644093	      0.70957318	     -9.22160873	    -18.21170896	     -2.61967180	      3.66001609	     55.72832484	      5.46997410	      0.97264276	      0.00189990	    -11.03484701	     -9.22160873	    -35.72472472	     -0.61595979	     -4.66158197	      3.79582332	     -6.27499212	    -32.35459993	     26.39972755	     90.00000001	      0.00000000	      0.00000000	      6.98129462	     -8.09766653	    -33.40154076	     33.28363842	     90.00000001	      0.00000000	      0.00000000
      0.35000000	     17.88604166	      3.43944916	      5.19526333	     -1.51603493	      0.89912156	     -0.01372162	      1.50037910	      0.24112992	    -15.65822353	     29.07705113	     -3.64423125	      0.50749028	     14.69850301	      0.90698511	     -9.18077685	    -16.75517592	     -2.56154627	      3.59377638	     57.85632530	      5.12024619	      1.00978337	      0.69061940	    -12.19485095	     -9.18077685	    -35.91933417	     -0.53379675	     -4.64200520	      4.27102304	     -6.33330944	    -31.78401159	     26.79115848	     90.00000001	      0.00000000	      0.00000000	      6.92975770	     -8.01649158	    -33.29602060	     33.16584321	     90.00000001	      0.00000000	      0.00000000
      0.36000000	     17.92288342	      3.38292842	      5.14615107	     -1.50859072	      0.89996553	     -0.01298410	      0.79777915	      0.43202233	    -15.54978853	     28.84907873	     -3.56765112	      0.50351141	     15.16336214	      1.00486609	     -9.14549324	    -15.19165255	     -2.49550765	      3.47167842	     59.81449947	      4.81490694	      1.04395996	      1.48328586	    -13.33882004	     -9.14549324	    -36.06300525	     -0.46432209	     -4.60101417	      4.75242898	     -6.41773958	    -31.09742563	     27.17564657	     90.00000001	      0.00000000	      0.00000000	      6.91899345	     -7.87819959	    -33.15762708	     33.02427989	     90.00000001	      0.00000000	      0.00000000
      0.37000000	     17.96191674	      3.35639556	      5.10888105	     -1.50127959	      0.90081339	     -0.01229886	      0.08022574	      0.56559638	    -15.41788492	     28.58766580	     -3.41716037	      0.49894889	     15.58317761	      1.04780942	     -9.11822307	    -13.62687285	     -2.33366591	      3.25184944	     61.52555877	      4.31306169	      1.07382357	      2.46028670	    -14.31276920	     -9.11822307	    -36.22378774	     -0.44136015	     -4.56804332	      5.25882256	     -6.51131350	    -30.46968994	     27.54045213	     90.00000001	      0.00000000	      0.00000000	      6.95443916	     -7.76387173	    -33.00565066	     32.90455596	     90.00000001	      0.00000000	      0.00000000
      0.38000000	     17.93249228	      3.30105545	      5.05966012	     -1.49417358	      0.90150507	     -0.01155873	     -0.52820366	      0.74597563	    -15.21854849	     28.34273774	     -3.30167362	      0.49467409	     15.99928086	      1.04272373	     -9.09113853	    -11.94371320	     -2.23880019	      2.92964357	     63.06601917	      3.83725304	      1.10070968	      3.38829393	    -15.13362705	     -9.09113853	    -36.32891983	     -0.40844353	     -4.47841746	      5.77704643	     -6.60609953	    -29.71711522	     27.89938563	     90.00000001	      0.00000000	      0.00000000	      7.01568457	     -7.63875507	    -32.82491969	     32.78197908	     90.00000001	      0.00000000	      0.00000000
      0.39000000	     17.96819917	      3.32491549	      4.93431894	     -1.48718935	      0.90231391	     -0.01068870	     -1.16742715	      0.84367807	    -15.05311574	     28.15468229	     -3.25467688	      0.49139191	     16.29560847	      1.03863138	     -9.06867503	    -10.37108490	     -2.06412422	      2.60786550	     64.28997597	      3.44608760	      1.12207176	      4.21171968	    -15.56078792	     -9.06867503	    -36.52896602	     -0.50532295	     -4.32537830	      6.32301770	     -6.67406977	    -29.07825590	     28.23147671	     90.00000001	      0.00000000	      0.00000000	      7.12817354	     -7.52797404	    -32.65007119	     32.72432530	     90.00000001	      0.00000000	      0.00000000
      0.40000000	     17.66223537	      3.05920399	      4.84713370	     -1.48035491	      0.90232349	     -0.00974668	     -1.39009317	      1.27837702	    -14.61994204	     27.95753417	     -3.14745376	      0.48795102	     16.74225335	      0.80178935	     -9.02079637	     -8.28035240	     -2.23695444	      2.13488409	     65.56866445	      2.99467336	      1.14438908	      5.05702822	    -15.92126265	     -9.02079637	    -36.32452889	     -0.35710376	     -4.06629048	      6.72693216	     -6.91242627	    -27.31189835	     28.66536405	     90.00000001	      0.00000000	      0.00000000	      7.20868964	     -7.41406495	    -32.32905523	     32.54791665	     90.00000001	      0.00000000	      0.00000000
